<svg width="240" height="138" viewBox="0 0 240 138" fill="none" xmlns="http://www.w3.org/2000/svg">
<g clip-path="url(#clip0_22_49)">
<path d="M95.5324 22.2429C103.997 35.2513 116.361 54.2552 124.684 67.2302C129.232 74.4717 134.416 81.6128 137.177 89.2751C139.182 94.7382 139.609 100.53 137.572 106.032C134.158 115.459 124.595 123.81 112.009 129.309C99.4225 134.792 84.2222 137.604 68.9774 137.97C58.7164 138.223 47.8196 136.966 39.3414 133.081C26.1417 127.224 23.0296 117.276 28.3246 108.039C31.121 103.086 36.4872 98.4872 41.9111 94.794C46.2769 91.8171 50.905 89.1831 55.5687 86.4376C57.4004 85.4258 60.5036 83.7841 62.3575 82.7806C65.8653 80.8936 69.6087 79.1516 73.2454 77.3621C104.309 62.9545 139.524 52.4268 175.406 43.7025C179.452 42.752 185.894 41.1855 189.984 40.2908C194.857 39.1759 199.765 38.1195 204.696 37.0937C205.118 37.0045 205.572 37.1495 205.714 37.4143C205.834 37.6428 205.678 37.8853 205.367 38.0052C196.502 41.4057 187.504 44.6167 178.55 47.8444C155.209 56.2008 131.811 64.5572 109.457 73.9058C96.9329 79.2212 84.649 84.8098 72.9698 90.8276C70.3245 92.2296 66.8967 93.9355 64.3448 95.3932C55.7688 100.19 46.0635 105.029 41.711 111.769C37.7987 118.062 39.8927 124.044 49.6068 127.659C61.0549 131.835 77.5179 130.722 89.9751 128.495C104.02 125.828 116.45 120.382 123.964 112.39C130.139 105.846 131.948 98.8328 130.068 91.3433C128.956 86.655 126.751 82.1981 124.324 77.6659C115.268 61.335 102.939 38.9612 94.0342 22.5969C93.8919 22.3349 94.1142 22.0506 94.5321 21.9586C94.9367 21.8722 95.3724 22.0004 95.5324 22.2429Z" fill="#0C6291"/>
<path d="M0.366827 48.0374C26.6462 37.3369 55.5575 28.0607 84.491 20.365C98.2198 16.8 115.305 12.9674 129.252 9.92925C138.192 8.03945 150.739 5.44725 159.808 4.13721C167.322 3.07245 175.702 2.11083 183.389 1.50877C199.216 0.195945 215.319 -0.375455 231.262 0.265628C233.934 0.371546 236.601 0.50255 239.273 0.697662C239.722 0.73111 240.042 0.984755 239.993 1.26627C239.953 1.47254 239.727 1.6342 239.433 1.69552C229.408 3.79994 219.129 5.48348 208.948 7.1503C204.04 8.006 198.722 8.87007 193.801 9.61707C183.913 11.2309 173.55 12.934 163.591 14.3193C149.027 16.4571 132.484 18.3302 118.066 20.8806C99.2157 24.2059 77.0354 28.805 58.7407 33.1838C39.2101 37.8303 20.0397 43.1345 1.15819 48.9126C0.758061 49.0353 0.282356 48.9322 0.0867386 48.6813C-0.0910951 48.45 0.0333885 48.174 0.371272 48.0402L0.366827 48.0374Z" fill="#0C6291"/>
</g>
<defs>
<clipPath id="clip0_22_49">
<rect width="240" height="138" fill="white"/>
</clipPath>
</defs>
</svg>
